<?xml version="1.0" standalone="no"?>
<!DOCTYPE svg PUBLIC "-//W3C//DTD SVG 20010904//EN"
 "http://www.w3.org/TR/2001/REC-SVG-20010904/DTD/svg10.dtd">
<svg version="1.0" xmlns="http://www.w3.org/2000/svg"
 width="700.000000pt" height="700.000000pt" viewBox="0 0 700.000000 700.000000"
 preserveAspectRatio="xMidYMid meet">
<metadata>
Created by potrace 1.11, written by Peter Selinger 2001-2013
</metadata>
<g transform="translate(0.000000,700.000000) scale(0.100000,-0.100000)"
fill="#000000" stroke="none">
<path d="M979 6996 c-2 -2 -23 -6 -46 -10 -73 -9 -194 -55 -275 -103 -180
-107 -306 -265 -376 -470 -32 -92 -41 -166 -37 -289 8 -248 99 -480 290 -745
71 -98 128 -162 265 -300 l135 -135 -58 -75 c-331 -424 -549 -952 -612 -1479
-21 -171 -23 -225 -20 -425 4 -272 24 -431 86 -678 172 -694 589 -1305 1179
-1727 419 -300 902 -485 1420 -545 183 -21 583 -14 755 13 566 89 1039 298
1485 656 109 87 354 335 448 453 294 371 500 810 591 1263 30 147 34 170 46
271 6 48 13 63 49 100 217 228 383 530 437 794 15 75 19 252 6 319 -71 395
-409 687 -812 700 l-100 3 -55 85 c-134 208 -333 436 -539 616 -90 80 -304
242 -319 242 -6 0 -12 4 -14 8 -5 14 -215 135 -328 190 -285 138 -568 227
-885 276 -190 30 -557 38 -740 17 -378 -45 -678 -130 -1004 -287 -74 -35 -135
-64 -136 -64 -2 0 10 32 27 71 96 228 112 503 41 694 -107 287 -324 475 -638
551 -26 6 -260 15 -266 10z m238 -379 c171 -51 294 -181 339 -359 50 -194 -59
-432 -240 -525 -191 -98 -396 -72 -550 68 -103 94 -159 221 -157 359 1 130 45
234 142 335 115 121 303 170 466 122z m4961 -2474 c240 -158 288 -494 102
-713 -25 -30 -30 -32 -31 -15 -2 38 -29 180 -63 336 -16 69 -97 316 -134 406
l-21 51 47 -15 c26 -9 71 -32 100 -50z"/>
</g>
</svg>
